<svg viewBox="0 0 300 75" xmlns="http://www.w3.org/2000/svg">
  <!-- Sfondo scuro per preview -->
  <rect width="300" height="75" fill="#0A0E1A"/>
  
  <!-- Icona: flusso continuo pensiero→documento -->
  <g transform="translate(20, 20)">
    <!-- Bulbo lampadina/pensiero -->
    <circle cx="10" cy="15" r="8" fill="none" stroke="#818CF8" stroke-width="2.2"/>
    <path d="M 7 23 L 13 23 M 8 26 L 12 26" stroke="#818CF8" stroke-width="2" stroke-linecap="round"/>
    <line x1="10" y1="7" x2="10" y2="4" stroke="#818CF8" stroke-width="1.8" stroke-linecap="round"/>
    
    <!-- Flusso trasformazione (particelle/onde) -->
    <circle cx="22" cy="12" r="1.5" fill="#60A5FA" opacity="0.8"/>
    <circle cx="26" cy="15" r="1.2" fill="#60A5FA" opacity="0.6"/>
    <circle cx="30" cy="13" r="1" fill="#60A5FA" opacity="0.4"/>
    <circle cx="22" cy="18" r="1.2" fill="#60A5FA" opacity="0.7"/>
    <circle cx="27" cy="20" r="1" fill="#60A5FA" opacity="0.5"/>
    
    <!-- Documento finale -->
    <g transform="translate(34, 5)">
      <rect x="0" y="0" width="20" height="26" rx="1.5" fill="none" stroke="#E2E8F0" stroke-width="2.2"/>
      <path d="M 16 0 L 16 5 L 20 5" fill="none" stroke="#E2E8F0" stroke-width="2.2" stroke-linejoin="round"/>
      <!-- Linee contenuto illuminate -->
      <line x1="4" y1="9" x2="16" y2="9" stroke="#818CF8" stroke-width="1.5" stroke-linecap="round" opacity="0.9"/>
      <line x1="4" y1="13" x2="16" y2="13" stroke="#818CF8" stroke-width="1.5" stroke-linecap="round" opacity="0.9"/>
      <line x1="4" y1="17" x2="13" y2="17" stroke="#818CF8" stroke-width="1.5" stroke-linecap="round" opacity="0.9"/>
      <line x1="4" y1="21" x2="16" y2="21" stroke="#818CF8" stroke-width="1.5" stroke-linecap="round" opacity="0.9"/>
    </g>
  </g>
  
  <!-- Testo "thinkdoc" con gradiente sottile -->
  <defs>
    <linearGradient id="textGradient" x1="0%" y1="0%" x2="100%" y2="0%">
      <stop offset="0%" style="stop-color:#F1F5F9;stop-opacity:1" />
      <stop offset="100%" style="stop-color:#CBD5E1;stop-opacity:1" />
    </linearGradient>
  </defs>
  
  <text x="90" y="47" font-family="'Inter', 'SF Pro Display', system-ui, sans-serif" font-size="28" font-weight="500" fill="url(#textGradient)" letter-spacing="-0.3">
    thinkdoc
  </text>
  
  <!-- Sottotitolo tech -->
  <text x="90" y="60" font-family="'Inter', system-ui, sans-serif" font-size="8" font-weight="400" fill="#64748B" letter-spacing="1.5">
    AI-POWERED WORKFLOW
  </text>
</svg>