<svg viewBox="0 0 280 70" xmlns="http://www.w3.org/2000/svg">
  <!-- Sfondo scuro per preview -->
  <rect width="280" height="70" fill="#0F172A"/>
  
  <!-- Icona compatta: pensiero che si trasforma in documento -->
  <g transform="translate(18, 18)">
    <!-- Forma ibrida: metà cervello/pensiero, metà documento -->
    <path d="M 17 0 C 7 0, 0 7, 0 17 C 0 27, 7 34, 17 34 L 17 34 L 27 29 L 27 5 L 17 0 Z" 
          fill="none" stroke="#F8FAFC" stroke-width="2.2" stroke-linejoin="round"/>
    
    <!-- Dettagli pensiero (lato sinistro) con glow -->
    <circle cx="8" cy="14" r="2.5" fill="#60A5FA" opacity="0.6"/>
    <circle cx="8" cy="22" r="2" fill="#60A5FA" opacity="0.6"/>
    
    <!-- Linee documento (lato destro) -->
    <line x1="18" y1="12" x2="24" y2="12" stroke="#60A5FA" stroke-width="1.5" stroke-linecap="round"/>
    <line x1="18" y1="17" x2="24" y2="17" stroke="#60A5FA" stroke-width="1.5" stroke-linecap="round"/>
    <line x1="18" y1="22" x2="24" y2="22" stroke="#60A5FA" stroke-width="1.5" stroke-linecap="round"/>
    
    <!-- Angolo piegato -->
    <path d="M 27 5 L 22 5 L 22 10 L 27 5" fill="#1E293B" stroke="#F8FAFC" stroke-width="2.2" stroke-linejoin="round"/>
  </g>
  
  <!-- Testo "thinkdoc" -->
  <text x="68" y="44" font-family="'Inter', 'SF Pro Display', system-ui, sans-serif" font-size="28" font-weight="500" fill="#F8FAFC" letter-spacing="-0.4">
    thinkdoc
  </text>
  
  <!-- Punto di accento luminoso -->
  <circle cx="223" cy="41" r="2.5" fill="#60A5FA"/>
  <circle cx="223" cy="41" r="5" fill="#60A5FA" opacity="0.2"/>
</svg>