<svg viewBox="0 0 340 90" xmlns="http://www.w3.org/2000/svg">
  <!-- Sfondo trasparente -->
  
  <!-- Icona: documento + onde sonore (voice-to-text concept) -->
  <g transform="translate(20, 20)">
    <!-- Documento base -->
    <rect x="8" y="5" width="34" height="45" rx="2" fill="none" stroke="#0F172A" stroke-width="2.2"/>
    <path d="M 39 5 L 39 12 L 42 12 L 42 50 L 8 50 L 8 12" fill="none" stroke="#0F172A" stroke-width="2.2"/>
    <line x1="42" y1="12" x2="39" y2="12" stroke="#0F172A" stroke-width="2.2"/>
    <line x1="39" y1="5" x2="39" y2="12" stroke="#0F172A" stroke-width="2.2"/>
    
    <!-- Onde sonore/pensiero (rec-to-text) -->
    <g transform="translate(-8, 15)">
      <path d="M 5 15 Q 7 10, 9 15 T 13 15" fill="none" stroke="#2563EB" stroke-width="2" stroke-linecap="round"/>
      <path d="M 4 20 Q 7 13, 10 20 T 16 20" fill="none" stroke="#2563EB" stroke-width="2" stroke-linecap="round"/>
      <path d="M 3 25 Q 7 16, 11 25 T 19 25" fill="none" stroke="#2563EB" stroke-width="2" stroke-linecap="round"/>
    </g>
    
    <!-- Linee testo documento -->
    <line x1="14" y1="18" x2="36" y2="18" stroke="#94A3B8" stroke-width="1.5" stroke-linecap="round"/>
    <line x1="14" y1="24" x2="36" y2="24" stroke="#94A3B8" stroke-width="1.5" stroke-linecap="round"/>
    <line x1="14" y1="30" x2="32" y2="30" stroke="#94A3B8" stroke-width="1.5" stroke-linecap="round"/>
    <line x1="14" y1="36" x2="36" y2="36" stroke="#94A3B8" stroke-width="1.5" stroke-linecap="round"/>
    <line x1="14" y1="42" x2="28" y2="42" stroke="#94A3B8" stroke-width="1.5" stroke-linecap="round"/>
  </g>
  
  <!-- Testo "thinkdoc" -->
  <text x="85" y="52" font-family="'Inter', 'SF Pro Display', system-ui, sans-serif" font-size="30" font-weight="500" fill="#0F172A" letter-spacing="-0.5">
    thinkdoc
  </text>
  
  <!-- Sottotitolo professionale -->
  <text x="85" y="68" font-family="'Inter', system-ui, sans-serif" font-size="9" font-weight="400" fill="#64748B" letter-spacing="1.2">
    VOICE TO DOCUMENT
  </text>
</svg>